<svg xmlns="http://www.w3.org/2000/svg" width="960" height="180">
  <path fill="#c87137" d="M0 0h960v180H0z"/>
  <g fill="#fff">
    <path d="M39.6 138.2H65v-24l9-13 21.2 37h27.6L88.8 81l28.5-39.2H89.6l-24 36h-.7v-36H39.5v96.4z M162.4 140c26.4 0 44.3-18.7 44.3-50.4S188.7 40 162.4 40 118 58 118 89.7c0 31.7 17.8 50.4 44.3 50.4zm0-22c-11.6 0-18.6-11-18.6-28.4 0-17.5 7-27.6 18.5-27.6 11.4 0 18.4 10 18.4 27.6s-7 28.5-18.4 28.5zm55.3 20.2h24v-28c0-11.7-2-25.7-3-36.7h.5l9 21.6 21.3 43.3h26V42h-24.3v27.8c0 11.8 2.2 26.3 3.3 36.7h-.6l-9.2-21.7-21.2-43h-26v96.4zM341 140c23.8 0 37.4-14.5 37.4-30.8 0-13.4-6.8-21.6-18.7-26.4L348 78.2c-8.6-3.4-14-5-14-9.6 0-4.3 3.8-6.6 10-6.6 7 0 12.5 2.4 19 7l12.6-16C366.8 44 355 40 344 40c-21 0-35.6 13.4-35.6 30 0 14 9 22.7 19.2 26.8l12 5c8 3.3 12.8 4.8 12.8 9.4 0 4.3-3.2 6.7-11 6.7-7 0-15.5-3.8-22.2-9.4L304.8 126c10.3 9.6 24 14 36.2 14zm65.2-1.8h25.3v-75h25.3V41.8h-76v21h25.4v75.2zm59 0h25.2V106h9.7l16.6 32.2h28.2L524 101c9.3-5.3 15.5-14.2 15.5-28 0-24-17.6-31.2-38.2-31.2H465v96.4zm25.2-52.5V62h9c10 0 15.4 2.6 15.4 11 0 8.3-5.3 12.7-15.3 12.7h-9zM591 140c27 0 39.3-15.4 39.3-48.4V41.8h-24.5v52.8c0 17.2-4.7 23.5-14.7 23.5s-14.3-6-14.3-23.3v-53h-25.3v50c0 33 13 48.3 39.7 48.3zm53.8-1.8h25.4V41.8h-25.4v96.4zm71 1.8c24 0 37.4-14.5 37.4-30.8 0-13.4-6.7-21.6-18.7-26.4L723 78.2c-8.8-3.4-14.2-5-14.2-9.6 0-4.3 3.8-6.6 10-6.6 7 0 12.7 2.4 19 7l12.8-16c-8.8-8.8-21-13-31.8-13-21 0-35.6 13.4-35.6 30 0 14 9 22.6 19.3 26.8l12 5c8 3.3 12.8 4.8 12.8 9.4 0 4.2-3.2 6.6-10.8 6.6-7 0-15.6-3.7-22.4-9.2L679.8 126c10.3 9.5 24 14 36.2 14zm65.2-1.8h25.3v-75h25.3V41.8h-76v21H781v75.2zm95 1.8c26.4 0 44.3-18.7 44.3-50.4 0-31.6-18-49.6-44.4-49.6s-44.5 17.8-44.5 49.5 18 50.4 44.4 50.4zm0-22c-11.6 0-18.6-11-18.6-28.4 0-17.5 7-27.6 18.5-27.6s18.4 10 18.4 27.6-7 28.5-18.5 28.5z"/>
  </g>
</svg>