mtllib debug.mtl
o debug_cylinder
v 0.000000 0.000000 -0.500000
v 0.000000 1.000000 -0.500000
v 0.390916 0.000000 -0.311745
v 0.390916 1.000000 -0.311745
v 0.487464 0.000000 0.111260
v 0.487464 1.000000 0.111260
v 0.216942 0.000000 0.450484
v 0.216942 1.000000 0.450484
v -0.216942 0.000000 0.450484
v -0.216942 1.000000 0.450484
v -0.487464 0.000000 0.111261
v -0.487464 1.000000 0.111261
v -0.390916 0.000000 -0.311745
v -0.390916 1.000000 -0.311745
vn 0.4339 0.0000 -0.9010
vn 0.9749 0.0000 -0.2225
vn 0.7818 0.0000 0.6235
vn 0.0000 0.0000 1.0000
vn -0.7818 0.0000 0.6235
vn 0.0000 1.0000 0.0000
vn -0.9749 0.0000 -0.2225
vn -0.4339 0.0000 -0.9010
vn 0.0000 -1.0000 0.0000
s off
f 2//1 3//1 1//1
f 4//2 5//2 3//2
f 6//3 7//3 5//3
f 8//4 9//4 7//4
f 10//5 11//5 9//5
f 2//6 12//6 8//6
f 12//7 13//7 11//7
f 14//8 1//8 13//8
f 3//9 7//9 13//9
f 2//1 4//1 3//1
f 4//2 6//2 5//2
f 6//3 8//3 7//3
f 8//4 10//4 9//4
f 10//5 12//5 11//5
f 6//6 4//6 8//6
f 2//6 14//6 12//6
f 12//6 10//6 8//6
f 8//6 4//6 2//6
f 12//7 14//7 13//7
f 14//8 2//8 1//8
f 13//9 1//9 3//9
f 3//9 5//9 7//9
f 7//9 9//9 11//9
f 11//9 13//9 7//9