mtllib power-line-cable.mtl
o power_line_cable
v 0.700000 -0.050000 -1.000000
v 0.700000 -0.050000 1.000000
v 0.600000 -0.050000 1.000000
v 0.600000 -0.050000 -1.000000
v 0.700000 0.050000 -0.999999
v 0.700000 0.050000 1.000001
v 0.600000 0.050000 1.000000
v 0.600000 0.050000 -1.000000
v -0.600000 -0.050000 -1.000000
v -0.600000 -0.050000 1.000000
v -0.700000 -0.050000 1.000000
v -0.700000 -0.050000 -1.000000
v -0.600000 0.050000 -0.999999
v -0.600000 0.050000 1.000001
v -0.700000 0.050000 1.000000
v -0.700000 0.050000 -1.000000
vn 0.0000 -1.0000 0.0000
vn 0.0000 1.0000 0.0000
vn 1.0000 0.0000 0.0000
vn -1.0000 0.0000 -0.0000
usemtl power_line_cable
s off
f 1//1 3//1 4//1
f 5//2 7//2 6//2
f 5//3 2//3 1//3
f 7//4 4//4 3//4
f 9//1 11//1 12//1
f 13//2 15//2 14//2
f 13//3 10//3 9//3
f 15//4 12//4 11//4
f 1//1 2//1 3//1
f 5//2 8//2 7//2
f 5//3 6//3 2//3
f 7//4 8//4 4//4
f 9//1 10//1 11//1
f 13//2 16//2 15//2
f 13//3 14//3 10//3
f 15//4 16//4 12//4
