mtllib tree.mtl
o branches
v 0.000000 0.158797 -0.350000
v -0.000000 0.308137 -0.156883
v 0.332870 0.158797 -0.108156
v 0.149205 0.308137 -0.048480
v 0.205725 0.158797 0.283156
v 0.092214 0.308137 0.126921
v -0.205725 0.158797 0.283156
v -0.092214 0.308137 0.126921
v -0.332870 0.158797 -0.108156
v -0.149205 0.308137 -0.048480
v -0.019994 0.548739 -0.088085
v -0.000000 0.657331 0.000000
v 0.077595 0.548739 -0.046236
v 0.067951 0.548739 0.059510
v -0.035599 0.548739 0.083015
v -0.089952 0.548739 -0.008204
v 0.067486 0.438666 -0.122965
v 0.027035 0.561997 -0.049260
v 0.137801 0.438666 0.026185
v 0.055204 0.561997 0.010490
v 0.017680 0.438666 0.139148
v 0.007083 0.561997 0.055743
v -0.126874 0.438666 0.059814
v -0.050826 0.561997 0.023962
v -0.096092 0.438666 -0.102181
v -0.038495 0.561997 -0.040934
v 0.052348 0.291295 -0.234405
v 0.022671 0.447855 -0.101519
v 0.239109 0.291295 -0.022649
v 0.103556 0.447855 -0.009809
v 0.095430 0.291295 0.220407
v 0.041330 0.447855 0.095456
v -0.180131 0.291295 0.158869
v -0.078013 0.447855 0.068804
v -0.206756 0.291295 -0.122221
v -0.089544 0.447855 -0.052933
vn 0.4061 0.7229 -0.5590
vn 0.6572 0.7229 0.2135
vn -0.0000 0.7229 0.6910
vn -0.6572 0.7229 0.2135
vn -0.4061 0.7229 -0.5590
vn 0.3270 0.5583 -0.7625
vn 0.8262 0.5583 0.0754
vn 0.1836 0.5583 0.8091
vn -0.7127 0.5583 0.4247
vn -0.6241 0.5583 -0.5466
vn 0.7921 0.4829 -0.3734
vn 0.5999 0.4829 0.6379
vn -0.4213 0.4829 0.7676
vn -0.8603 0.4829 -0.1635
vn -0.1104 0.4829 -0.8687
vn 0.6134 0.5754 -0.5410
vn 0.7040 0.5754 0.4162
vn -0.1783 0.5754 0.7982
vn -0.8142 0.5754 0.0771
vn -0.3250 0.5754 -0.7505
usemtl tree_green_branches
s off
f 2//1 3//1 1//1
f 4//2 5//2 3//2
f 6//3 7//3 5//3
f 7//4 10//4 9//4
f 9//5 2//5 1//5
f 11//6 12//6 13//6
f 13//7 12//7 14//7
f 14//8 12//8 15//8
f 15//9 12//9 16//9
f 16//10 12//10 11//10
f 18//11 19//11 17//11
f 20//12 21//12 19//12
f 22//13 23//13 21//13
f 24//14 25//14 23//14
f 25//15 18//15 17//15
f 28//16 29//16 27//16
f 30//17 31//17 29//17
f 32//18 33//18 31//18
f 34//19 35//19 33//19
f 36//20 27//20 35//20
f 2//1 4//1 3//1
f 4//2 6//2 5//2
f 6//3 8//3 7//3
f 7//4 8//4 10//4
f 9//5 10//5 2//5
f 18//11 20//11 19//11
f 20//12 22//12 21//12
f 22//13 24//13 23//13
f 24//14 26//14 25//14
f 25//15 26//15 18//15
f 28//16 30//16 29//16
f 30//17 32//17 31//17
f 32//18 34//18 33//18
f 34//19 36//19 35//19
f 36//20 28//20 27//20
o trunk
v -0.000000 0.000000 -0.084252
v -0.000000 0.271169 -0.041491
v 0.080129 0.000000 -0.026035
v 0.039460 0.271169 -0.012821
v 0.049522 0.000000 0.068161
v 0.024388 0.271169 0.033567
v -0.049522 0.000000 0.068161
v -0.024388 0.271169 0.033567
v -0.080129 0.000000 -0.026035
v -0.039460 0.271169 -0.012821
vn 0.5831 0.1266 -0.8025
vn 0.9434 0.1266 0.3065
vn -0.0000 0.1266 0.9920
vn -0.9434 0.1266 0.3065
vn -0.5831 0.1266 -0.8025
usemtl tree_trunk
s off
f 38//21 39//21 37//21
f 40//22 41//22 39//22
f 42//23 43//23 41//23
f 44//24 45//24 43//24
f 46//25 37//25 45//25
f 38//21 40//21 39//21
f 40//22 42//22 41//22
f 42//23 44//23 43//23
f 44//24 46//24 45//24
f 46//25 38//25 37//25
